<svg width="28" height="28" viewBox="0 0 28 28" fill="none" xmlns="http://www.w3.org/2000/svg">
<path d="M22.0281 14.2153C21.6675 13.8531 21.3913 13.4159 21.2193 12.935C21.0473 12.454 20.9665 11.9582 21.0157 11.4498C21.0663 10.8514 20.9854 10.2493 20.7788 9.68525C20.5723 9.12132 20.2449 8.60916 19.8197 8.1845C19.3944 7.75994 18.8814 7.43304 18.3165 7.22688C17.7516 7.02064 17.1485 6.93988 16.5492 6.99043C15.8323 7.05702 15.1294 6.88421 14.5043 6.52729C13.8794 6.17037 13.3798 5.62971 13.0739 4.97895C12.768 4.32818 12.6704 3.59914 12.7947 2.89099C12.9191 2.18294 13.2591 1.53037 13.7684 1.0223C14.2778 0.51423 14.9317 0.175359 15.6409 0.0519514C16.3503 -0.0715513 17.0804 0.0264912 17.7319 0.332493C18.3835 0.638589 18.9245 1.13773 19.2814 1.76208C19.6383 2.38644 19.7937 3.10541 19.7264 3.82116C19.6757 4.41948 19.7746 5.0046 19.9812 5.56862C20.1878 6.13256 20.5152 6.64471 20.9404 7.06937C21.3658 7.49394 21.8787 7.82084 22.4436 8.02699C23.0085 8.23324 23.5935 8.33109 24.1929 8.28055C24.7784 8.22802 25.3679 8.32387 25.9066 8.55929C26.4451 8.7947 26.9156 9.16208 27.2741 9.6273C27.6327 10.0925 27.8679 10.6407 27.9577 11.2208C28.0476 11.8009 27.9894 12.3943 27.7884 12.9461C27.5875 13.4978 27.2502 13.9899 26.8081 14.3768C26.3659 14.7638 25.833 15.033 25.2589 15.1596C24.6847 15.2861 24.0878 15.266 23.5235 15.1009C22.9593 14.9358 22.4459 14.6312 22.031 14.2153H22.0281Z" fill="#7B68FF"/>
<path d="M14.3242 17.454C13.8149 17.5053 13.3185 17.4257 12.8362 17.2542C12.354 17.0826 11.9159 16.8062 11.5537 16.4449C11.1917 16.0836 10.9144 15.6464 10.7423 15.1651C10.57 14.6837 10.5071 14.1702 10.558 13.6616C10.6087 13.0631 10.5097 12.4781 10.3032 11.9141C10.0966 11.3502 9.76922 10.838 9.34398 10.4134C8.91864 9.98879 8.40567 9.66188 7.84084 9.45573C7.27591 9.24944 6.67283 9.16876 6.07346 9.21927C5.35647 9.28653 4.65433 9.11416 4.02898 8.75766C3.40354 8.40115 2.9036 7.86071 2.59721 7.21007C2.29082 6.55944 2.19291 5.83027 2.3168 5.12202C2.44069 4.41377 2.78038 3.76094 3.28964 3.25254C3.79881 2.74416 4.45271 2.40496 5.16208 2.28125C5.87144 2.15753 6.60175 2.2553 7.25345 2.56122C7.90516 2.86714 8.44639 3.36633 8.8035 3.99069C9.16061 4.61504 9.33322 5.31613 9.26585 6.03195C9.21514 6.63036 9.29583 7.23262 9.50231 7.79666C9.70879 8.36071 10.0362 8.87295 10.4615 9.29765C10.8868 9.72221 11.3999 10.0491 11.9648 10.2553C12.5298 10.4614 13.1159 10.56 13.7152 10.5094C14.2246 10.4582 14.7391 10.5206 15.2213 10.6922C15.7036 10.8637 16.1416 11.1401 16.5038 11.5014C16.866 11.8627 17.1431 12.2999 17.3154 12.7813C17.4875 13.2627 17.5675 13.759 17.5166 14.2677C17.4662 14.866 17.5472 15.4681 17.7537 16.0321C17.9604 16.5959 18.2877 17.108 18.713 17.5326C19.1383 17.9572 19.6512 18.284 20.216 18.4903C20.7808 18.6966 21.3838 18.7774 21.9831 18.7271C22.7001 18.6598 23.4032 18.8321 24.0286 19.1887C24.6539 19.5452 25.1539 20.0856 25.4603 20.7363C25.7667 21.3869 25.8647 22.1161 25.7408 22.8243C25.6168 23.5326 25.2771 24.1854 24.7679 24.6938C24.2587 25.2022 23.6048 25.5414 22.8955 25.6651C22.1861 25.7888 21.4557 25.691 20.8041 25.3851C20.1524 25.0792 19.6111 24.5801 19.254 23.9557C18.8969 23.3313 18.7234 22.6293 18.7907 21.9134C18.8413 21.315 18.7605 20.7129 18.5539 20.1489C18.3474 19.5849 18.02 19.0728 17.5947 18.6481C17.1694 18.2236 16.6564 17.8967 16.0916 17.6905C15.5267 17.4843 14.9236 17.4035 14.3242 17.454Z" fill="#7B68FF"/>
<path d="M5.96603 13.787C6.32668 14.1492 6.6028 14.5864 6.77468 15.0674C6.94657 15.5484 7.02805 16.0443 6.97845 16.5525C6.92783 17.151 7.00867 17.7534 7.21536 18.3176C7.42204 18.8817 7.74959 19.3939 8.17511 19.8186C8.60064 20.2432 9.1138 20.57 9.67892 20.7761C10.244 20.9823 10.8474 21.0627 11.4469 21.0119C12.1636 20.9449 12.8655 21.1173 13.4906 21.4738C14.1156 21.8303 14.6153 22.3706 14.9216 23.021C15.2278 23.6714 15.3256 24.4003 15.2017 25.1083C15.0778 25.8163 14.7381 26.4689 14.2292 26.9771C13.7202 27.4853 13.0665 27.8244 12.3574 27.9481C11.6483 28.0718 10.9182 27.9741 10.2668 27.6684C9.61526 27.3627 9.07412 26.8637 8.71711 26.2397C8.36 25.6156 8.18729 24.9139 8.25447 24.1983C8.30509 23.5999 8.22421 22.9977 8.01763 22.4338C7.81106 21.8698 7.48375 21.3576 7.05845 20.933C6.63316 20.5084 6.12017 20.1815 5.5553 19.9754C4.99043 19.7691 4.40442 19.6713 3.80509 19.7218C3.21949 19.7742 2.6301 19.6782 2.09155 19.4427C1.553 19.2072 1.0827 18.8397 0.72425 18.3744C0.365798 17.9092 0.130787 17.361 0.0409816 16.7809C-0.0488148 16.2007 0.00950479 15.6074 0.210536 15.0558C0.411566 14.5041 0.748819 14.0121 1.19103 13.6252C1.63323 13.2383 2.16609 12.9691 2.74023 12.8426C3.31436 12.7162 3.91119 12.7364 4.47542 12.9014C5.03964 13.0665 5.553 13.3711 5.96792 13.787H5.96603Z" fill="#7B68FF"/>
</svg>
